<?xml version="1.0" encoding="UTF-8" standalone="no"?>
<svg
   xmlns:dc="http://purl.org/dc/elements/1.1/"
   xmlns:cc="http://creativecommons.org/ns#"
   xmlns:rdf="http://www.w3.org/1999/02/22-rdf-syntax-ns#"
   xmlns:svg="http://www.w3.org/2000/svg"
   xmlns="http://www.w3.org/2000/svg"
   xmlns:sodipodi="http://sodipodi.sourceforge.net/DTD/sodipodi-0.dtd"
   xmlns:inkscape="http://www.inkscape.org/namespaces/inkscape"
   viewBox="0 0 16 16"
   version="1.1"
   id="svg6"
   sodipodi:docname="discord.svg"
   inkscape:version="0.92.3 (2405546, 2018-03-11)"
   width="16"
   height="16">
  <metadata
     id="metadata12">
    <rdf:RDF>
      <cc:Work
         rdf:about="">
        <dc:format>image/svg+xml</dc:format>
        <dc:type
           rdf:resource="http://purl.org/dc/dcmitype/StillImage" />
        <dc:title></dc:title>
      </cc:Work>
    </rdf:RDF>
  </metadata>
  <defs
     id="defs10" />
  <sodipodi:namedview
     pagecolor="#ffffff"
     bordercolor="#666666"
     borderopacity="1"
     objecttolerance="10"
     gridtolerance="10"
     guidetolerance="10"
     inkscape:pageopacity="0"
     inkscape:pageshadow="2"
     inkscape:window-width="1366"
     inkscape:window-height="699"
     id="namedview8"
     showgrid="false"
     inkscape:zoom="0.98333333"
     inkscape:cx="297.41525"
     inkscape:cy="24.795162"
     inkscape:window-x="0"
     inkscape:window-y="0"
     inkscape:window-maximized="1"
     inkscape:current-layer="svg6" />
  <circle
     style="opacity:1;fill:#000000;fill-opacity:1;stroke:none;stroke-width:0.13278139;stroke-miterlimit:4;stroke-dasharray:none;stroke-opacity:1"
     id="path3717"
     cx="8"
     cy="8"
     r="8" />
  <path
     d="m 7.115859,7.5099 c -0.267933,0 -0.4794583,0.23503 -0.4794583,0.52176 0,0.28673 0.216226,0.52176 0.4794583,0.52176 0.267932,0 0.479457,-0.23503 0.479457,-0.52176 C 7.600016,7.74493 7.383791,7.5099 7.115859,7.5099 Z m 1.715706,0 c -0.267932,0 -0.479458,0.23503 -0.479458,0.52176 0,0.28673 0.216226,0.52176 0.479458,0.52176 0.267932,0 0.479458,-0.23503 0.479458,-0.52176 0,-0.28673 -0.211526,-0.52176 -0.479458,-0.52176 z"
     id="path2"
     inkscape:connector-curvature="0"
     style="fill:#ffffff;stroke-width:0.04700565" />
  <path
     d="M 11.116039,3.56612 H 4.8172825 c -0.5311638,0 -0.9636158,0.43246 -0.9636158,0.96832 v 6.35516 c 0,0.53587 0.432452,0.96832 0.9636158,0.96832 h 5.3304405 l -0.24913,-0.8696 0.601672,0.55936 0.568769,0.52647 1.010621,0.8931 V 4.53444 c 0,-0.53586 -0.432452,-0.96832 -0.963616,-0.96832 z M 9.301621,9.70506 c 0,0 -0.16922,-0.20212 -0.310237,-0.38074 C 9.607158,9.15039 9.842187,8.76495 9.842187,8.76495 9.649463,8.89186 9.466141,8.98117 9.301621,9.04228 9.066593,9.14098 8.840966,9.2068 8.620039,9.24441 8.168785,9.32901 7.755135,9.30551 7.402593,9.23941 7.134661,9.18771 6.9043333,9.11249 6.71161,9.03728 6.6034967,8.99498 6.4859827,8.94328 6.3684689,8.87746 c -0.014102,-0.009 -0.028203,-0.0141 -0.042305,-0.0235 -0.0094,-0.005 -0.014101,-0.009 -0.018802,-0.0141 -0.08461,-0.047 -0.1316159,-0.0799 -0.1316159,-0.0799 0,0 0.2256272,0.37604 0.822599,0.55466 C 6.8573276,9.49325 6.683407,9.70477 6.683407,9.70477 5.6445822,9.67187 5.2497348,8.99029 5.2497348,8.99029 5.2497348,7.4767 5.9266161,6.24986 5.9266161,6.24986 6.603497,5.7422 7.247475,5.7563 7.247475,5.7563 l 0.04701,0.0564 C 6.4483836,6.05713 6.058237,6.42848 6.058237,6.42848 c 0,0 0.1034124,-0.0564 0.2773332,-0.13632 C 6.8385306,6.07123 7.238078,6.01013 7.402598,5.99603 c 0.0282,-0.005 0.05171,-0.009 0.07991,-0.009 0.286734,-0.0376 0.611073,-0.047 0.949514,-0.009 0.446554,0.0517 0.926011,0.18333 1.41487,0.45126 0,0 -0.371344,-0.35254 -1.170441,-0.59697 l 0.06581,-0.0752 c 0,0 0.643977,-0.0141 1.320859,0.49356 0,0 0.676882,1.22684 0.676882,2.74043 0,0 -0.399549,0.68158 -1.438374,0.71448 z"
     id="path4"
     inkscape:connector-curvature="0"
     style="fill:#ffffff;stroke-width:0.04700565" />
</svg>
