<?xml version="1.0" encoding="UTF-8" standalone="no"?>
<!-- Created with Inkscape (http://www.inkscape.org/) -->

<svg
   xmlns:dc="http://purl.org/dc/elements/1.1/"
   xmlns:cc="http://creativecommons.org/ns#"
   xmlns:rdf="http://www.w3.org/1999/02/22-rdf-syntax-ns#"
   xmlns:svg="http://www.w3.org/2000/svg"
   xmlns="http://www.w3.org/2000/svg"
   xmlns:sodipodi="http://sodipodi.sourceforge.net/DTD/sodipodi-0.dtd"
   xmlns:inkscape="http://www.inkscape.org/namespaces/inkscape"
   version="1.1"
   id="svg2"
   width="16"
   height="16"
   viewBox="0 0 16 16"
   sodipodi:docname="github.svg"
   inkscape:export-filename="/home/dominic/Desktop/DEBs/stable/feren-welcome/usr/share/feren-welcome/img/logos/github.png"
   inkscape:export-xdpi="51.200001"
   inkscape:export-ydpi="51.200001"
   inkscape:version="0.92.3 (2405546, 2018-03-11)">
  <metadata
     id="metadata8">
    <rdf:RDF>
      <cc:Work
         rdf:about="">
        <dc:format>image/svg+xml</dc:format>
        <dc:type
           rdf:resource="http://purl.org/dc/dcmitype/StillImage" />
        <dc:title></dc:title>
      </cc:Work>
    </rdf:RDF>
  </metadata>
  <defs
     id="defs6" />
  <sodipodi:namedview
     pagecolor="#ffffff"
     bordercolor="#666666"
     borderopacity="1"
     objecttolerance="10"
     gridtolerance="10"
     guidetolerance="10"
     inkscape:pageopacity="0"
     inkscape:pageshadow="2"
     inkscape:window-width="1366"
     inkscape:window-height="700"
     id="namedview4"
     showgrid="false"
     inkscape:zoom="15.733333"
     inkscape:cx="-8.2157167"
     inkscape:cy="8.9351222"
     inkscape:window-x="0"
     inkscape:window-y="0"
     inkscape:window-maximized="1"
     inkscape:current-layer="svg2" />
  <path
     style="fill:#000000;stroke-width:0.13341056"
     d="M 4.3934644,15.120399 C 1.8123717,13.837832 0,10.900562 0,8.0000008 0,3.6834195 3.6834201,0 8,0 c 4.316581,0 8,3.6834195 8,8.0000008 0,2.9147242 -1.819588,5.8521832 -4.415969,7.1289442 -1.501748,0.738479 -1.50268,0.737738 -1.583891,-1.260298 C 9.9613087,12.913272 9.8617069,12.078115 9.766672,11.91103 9.5380876,11.509147 9.5348817,11.513338 10.145595,11.41568 10.927889,11.290587 11.931337,10.743469 12.324954,10.22741 13.2455,9.0205115 13.345548,7.0257741 12.549469,5.7510148 12.429112,5.5582873 12.366515,5.182718 12.387827,4.7811883 12.406956,4.4207756 12.383304,3.9469587 12.335272,3.7282613 12.219216,3.1998556 11.76737,3.1989324 10.724496,3.7249653 10.039589,4.07044 9.876078,4.103906 9.4049425,3.9950484 8.7145163,3.8355215 7.2854851,3.8355215 6.5950588,3.9950484 6.123922,4.103906 5.9604128,4.07044 5.2755056,3.7249653 4.2326313,3.1989289 3.7807857,3.1998536 3.6647293,3.7282613 c -0.048034,0.2186974 -0.071684,0.6925143 -0.052554,1.052927 0.021311,0.4015297 -0.041285,0.777099 -0.1616429,0.9698265 -0.4041018,0.647088 -0.5201331,1.0853657 -0.5201331,1.964676 0,1.201126 0.3135496,2.0725769 0.988064,2.7461402 0.5266435,0.5259 1.5982491,1.006844 2.2433839,1.006844 0.2002252,0 0.2424364,0.05758 0.1711497,0.233469 -0.052044,0.128407 -0.1522954,0.392548 -0.2227814,0.586981 -0.2143147,0.591177 -1.144237,0.692815 -1.8648127,0.203819 -0.2511135,-0.170409 -0.5296467,-0.285476 -0.6189649,-0.255703 -0.089318,0.02977 -0.1623967,-0.01445 -0.1623967,-0.09827 0,-0.08382 0.060034,-0.115297 0.1334104,-0.06995 0.073376,0.04535 0.1334107,0.02622 0.1334107,-0.0425 0,-0.178841 -0.3630636,-0.456077 -0.432097,-0.329951 -0.031798,0.05809 -0.041205,0.03497 -0.020904,-0.05138 0.048065,-0.204462 -0.1948181,-0.399944 -0.6338281,-0.510128 -0.5474863,-0.137411 -0.6188343,0.178165 -0.1272591,0.562881 0.2323292,0.181824 0.5708371,0.623485 0.7522407,0.981466 0.4175137,0.823924 0.9319303,1.112745 1.9683313,1.105132 l 0.7727247,-0.0057 -0.038966,0.879415 c -0.049,1.105837 -0.1957079,1.148811 -1.5776399,0.462119 z m 0.6715048,-2.050798 c 0,-0.07338 0.060033,-0.13341 0.1334104,-0.13341 0.073374,0 0.1334107,0.06003 0.1334107,0.13341 0,0.07338 -0.060036,0.133411 -0.1334107,0.133411 -0.073377,0 -0.1334104,-0.06004 -0.1334104,-0.133411 z M 4.3979164,12.928316 c 0,-0.0777 0.060033,-0.104179 0.1334104,-0.05883 0.073374,0.04535 0.1334107,0.108925 0.1334107,0.141282 0,0.03236 -0.060036,0.05883 -0.1334107,0.05883 -0.073377,0 -0.1334104,-0.06358 -0.1334104,-0.141285 z m 1.3090911,0.05015 c 0.096305,-0.03854 0.2113716,-0.0338 0.2557026,0.01053 0.044331,0.04433 -0.034464,0.07586 -0.1751014,0.07007 -0.1554152,-0.0064 -0.1870282,-0.03801 -0.080601,-0.0806 z M 3.8642727,12.66937 c 0,-0.07338 0.060035,-0.13341 0.1334106,-0.13341 0.073376,0 0.1334106,0.06004 0.1334106,0.13341 0,0.07338 -0.060035,0.133411 -0.1334106,0.133411 -0.073376,0 -0.1334106,-0.06003 -0.1334106,-0.133411 z"
     id="path937"
     inkscape:connector-curvature="0" />
</svg>
