<?xml version="1.0" encoding="UTF-8" standalone="no"?>
<!-- Created with Inkscape (http://www.inkscape.org/) -->

<svg
   xmlns:dc="http://purl.org/dc/elements/1.1/"
   xmlns:cc="http://creativecommons.org/ns#"
   xmlns:rdf="http://www.w3.org/1999/02/22-rdf-syntax-ns#"
   xmlns:svg="http://www.w3.org/2000/svg"
   xmlns="http://www.w3.org/2000/svg"
   xmlns:xlink="http://www.w3.org/1999/xlink"
   xmlns:sodipodi="http://sodipodi.sourceforge.net/DTD/sodipodi-0.dtd"
   xmlns:inkscape="http://www.inkscape.org/namespaces/inkscape"
   id="svg2"
   version="1.1"
   inkscape:version="0.92.4 (5da689c313, 2019-01-14)"
   width="143.767"
   height="28"
   viewBox="0 0 143.767 28"
   sodipodi:docname="feren-os-wordmark.svg">
  <metadata
     id="metadata8">
    <rdf:RDF>
      <cc:Work
         rdf:about="">
        <dc:format>image/svg+xml</dc:format>
        <dc:type
           rdf:resource="http://purl.org/dc/dcmitype/StillImage" />
        <dc:title></dc:title>
      </cc:Work>
    </rdf:RDF>
  </metadata>
  <defs
     id="defs6">
    <inkscape:path-effect
       end_linecap_type="zerowidth"
       miter_limit="4"
       linejoin_type="extrp_arc"
       start_linecap_type="zerowidth"
       interpolator_beta="0.2"
       interpolator_type="CubicBezierJohan"
       sort_points="true"
       offset_points="0,0.83816087"
       is_visible="true"
       id="path-effect5000"
       effect="powerstroke" />
    <inkscape:path-effect
       end_linecap_type="zerowidth"
       miter_limit="4"
       linejoin_type="extrp_arc"
       start_linecap_type="zerowidth"
       interpolator_beta="0.2"
       interpolator_type="CubicBezierJohan"
       sort_points="true"
       offset_points="0,0.83816087"
       is_visible="true"
       id="path-effect4996"
       effect="powerstroke" />
    <inkscape:path-effect
       end_linecap_type="zerowidth"
       miter_limit="4"
       linejoin_type="extrp_arc"
       start_linecap_type="zerowidth"
       interpolator_beta="0.2"
       interpolator_type="CubicBezierJohan"
       sort_points="true"
       offset_points="0,0.13229166"
       is_visible="true"
       id="path-effect836"
       effect="powerstroke" />
    <inkscape:path-effect
       end_linecap_type="zerowidth"
       miter_limit="4"
       linejoin_type="extrp_arc"
       start_linecap_type="zerowidth"
       interpolator_beta="0.2"
       interpolator_type="CubicBezierJohan"
       sort_points="true"
       offset_points="0,0.13226906"
       is_visible="true"
       id="path-effect821"
       effect="powerstroke" />
    <inkscape:path-effect
       end_linecap_type="zerowidth"
       miter_limit="4"
       linejoin_type="extrp_arc"
       start_linecap_type="zerowidth"
       interpolator_beta="0.2"
       interpolator_type="CubicBezierJohan"
       sort_points="true"
       offset_points="0,0.13229166"
       is_visible="true"
       id="path-effect817"
       effect="powerstroke" />
    <clipPath
       clipPathUnits="userSpaceOnUse"
       id="clipPath1227">
      <path
         d="M 0,660 H 660 V 0 H 0 Z"
         id="path1225"
         inkscape:connector-curvature="0" />
    </clipPath>
    <clipPath
       clipPathUnits="userSpaceOnUse"
       id="clipPath1237">
      <path
         d="M -102.917,69.2871 H 102.917 V -69.2871 h -205.834 z"
         id="path1235"
         inkscape:connector-curvature="0" />
    </clipPath>
    <clipPath
       clipPathUnits="userSpaceOnUse"
       id="clipPath1865">
      <path
         d="M -102.917,69.2871 H 102.917 V -69.2871 h -205.834 z"
         id="path1863"
         inkscape:connector-curvature="0" />
    </clipPath>
    <clipPath
       clipPathUnits="userSpaceOnUse"
       id="clipPath2493">
      <path
         d="M -102.917,69.2871 H 102.917 V -69.2871 h -205.834 z"
         id="path2491"
         inkscape:connector-curvature="0" />
    </clipPath>
    <clipPath
       clipPathUnits="userSpaceOnUse"
       id="clipPath3121">
      <path
         d="M -102.917,69.2871 H 102.917 V -69.2871 h -205.834 z"
         id="path3119"
         inkscape:connector-curvature="0" />
    </clipPath>
    <clipPath
       clipPathUnits="userSpaceOnUse"
       id="clipPath3749">
      <path
         d="M -102.917,69.2871 H 102.917 V -69.2871 h -205.834 z"
         id="path3747"
         inkscape:connector-curvature="0" />
    </clipPath>
    <clipPath
       clipPathUnits="userSpaceOnUse"
       id="clipPath4377">
      <path
         d="M -102.917,69.2871 H 102.917 V -69.2871 h -205.834 z"
         id="path4375"
         inkscape:connector-curvature="0" />
    </clipPath>
    <clipPath
       clipPathUnits="userSpaceOnUse"
       id="clipPath5005">
      <path
         d="M -102.917,69.2871 H 102.917 V -69.2871 h -205.834 z"
         id="path5003"
         inkscape:connector-curvature="0" />
    </clipPath>
    <clipPath
       clipPathUnits="userSpaceOnUse"
       id="clipPath5633">
      <path
         d="M -102.917,69.2871 H 102.917 V -69.2871 h -205.834 z"
         id="path5631"
         inkscape:connector-curvature="0" />
    </clipPath>
    <clipPath
       clipPathUnits="userSpaceOnUse"
       id="clipPath6261">
      <path
         d="M -102.917,69.2871 H 102.917 V -69.2871 h -205.834 z"
         id="path6259"
         inkscape:connector-curvature="0" />
    </clipPath>
    <clipPath
       clipPathUnits="userSpaceOnUse"
       id="clipPath6889">
      <path
         d="M -102.917,69.2871 H 102.917 V -69.2871 h -205.834 z"
         id="path6887"
         inkscape:connector-curvature="0" />
    </clipPath>
    <clipPath
       clipPathUnits="userSpaceOnUse"
       id="clipPath7517">
      <path
         d="M -102.917,69.2871 H 102.917 V -69.2871 h -205.834 z"
         id="path7515"
         inkscape:connector-curvature="0" />
    </clipPath>
    <clipPath
       clipPathUnits="userSpaceOnUse"
       id="clipPath8145">
      <path
         d="M -102.917,69.2871 H 102.917 V -69.2871 h -205.834 z"
         id="path8143"
         inkscape:connector-curvature="0" />
    </clipPath>
    <clipPath
       clipPathUnits="userSpaceOnUse"
       id="clipPath8773">
      <path
         d="M -102.917,69.2871 H 102.917 V -69.2871 h -205.834 z"
         id="path8771"
         inkscape:connector-curvature="0" />
    </clipPath>
    <linearGradient
       inkscape:collect="always"
       xlink:href="#linearGradient17433"
       id="linearGradient17435"
       x1="4353.8413"
       y1="1800.7311"
       x2="4341.02"
       y2="-340.48657"
       gradientUnits="userSpaceOnUse"
       gradientTransform="matrix(0.24576658,0,0,0.20384133,748.95223,-160.44558)" />
    <linearGradient
       inkscape:collect="always"
       id="linearGradient17433">
      <stop
         style="stop-color:#008bf7;stop-opacity:1"
         offset="0"
         id="stop17429" />
      <stop
         style="stop-color:#008bf7;stop-opacity:1"
         offset="1"
         id="stop17431" />
    </linearGradient>
    <linearGradient
       gradientTransform="matrix(0.24576658,0,0,0.24674681,748.1284,-237.15677)"
       inkscape:collect="always"
       xlink:href="#linearGradient5126"
       id="linearGradient17435-3"
       x1="3395.8594"
       y1="1534.8274"
       x2="3364.8254"
       y2="1389.7089"
       gradientUnits="userSpaceOnUse" />
    <linearGradient
       inkscape:collect="always"
       id="linearGradient5126">
      <stop
         style="stop-color:#000000;stop-opacity:0.07843138"
         offset="0"
         id="stop5122" />
      <stop
         style="stop-color:#000000;stop-opacity:0"
         offset="1"
         id="stop5124" />
    </linearGradient>
    <linearGradient
       inkscape:collect="always"
       xlink:href="#linearGradient17417"
       id="linearGradient17419"
       x1="3712.7583"
       y1="4602.2646"
       x2="3725.5801"
       y2="1672.5146"
       gradientUnits="userSpaceOnUse"
       gradientTransform="matrix(0.24576658,0,0,0.24674682,351.90907,-208.68337)" />
    <linearGradient
       inkscape:collect="always"
       id="linearGradient17417">
      <stop
         style="stop-color:#208af6;stop-opacity:1"
         offset="0"
         id="stop17413" />
      <stop
         style="stop-color:#1c89f4;stop-opacity:1"
         offset="1"
         id="stop17415" />
    </linearGradient>
    <linearGradient
       inkscape:collect="always"
       xlink:href="#linearGradient17425"
       id="linearGradient17427"
       x1="3725.5801"
       y1="3820.1428"
       x2="3687.115"
       y2="1294.2754"
       gradientUnits="userSpaceOnUse"
       gradientTransform="matrix(0.24576658,0,0,0.24674682,351.08509,-208.68337)" />
    <linearGradient
       inkscape:collect="always"
       id="linearGradient17425">
      <stop
         style="stop-color:#0086ed;stop-opacity:1"
         offset="0"
         id="stop17421" />
      <stop
         style="stop-color:#0086ed;stop-opacity:1"
         offset="1"
         id="stop17423" />
    </linearGradient>
    <linearGradient
       inkscape:collect="always"
       xlink:href="#linearGradient17488"
       id="linearGradient17458"
       x1="1664.6449"
       y1="3954.7705"
       x2="1536.4282"
       y2="3932.3328"
       gradientUnits="userSpaceOnUse"
       gradientTransform="matrix(0.24576658,0,0,0.24674682,725.64226,-191.01008)" />
    <linearGradient
       id="linearGradient17488"
       inkscape:collect="always">
      <stop
         id="stop17484"
         offset="0"
         style="stop-color:#000000;stop-opacity:0.12254902" />
      <stop
         id="stop17486"
         offset="1"
         style="stop-color:#000000;stop-opacity:0" />
    </linearGradient>
    <linearGradient
       inkscape:collect="always"
       xlink:href="#linearGradient5126"
       id="linearGradient17419-2"
       x1="4552.5771"
       y1="2938.6541"
       x2="4462.8257"
       y2="2999.5566"
       gradientUnits="userSpaceOnUse"
       gradientTransform="matrix(0.24576658,0,0,0.24674682,351.90905,-208.68339)" />
    <linearGradient
       inkscape:collect="always"
       xlink:href="#linearGradient5126"
       id="linearGradient17521"
       x1="4730.3306"
       y1="1641.3304"
       x2="4768.7744"
       y2="1593.2493"
       gradientUnits="userSpaceOnUse"
       gradientTransform="matrix(0.24576658,0,0,0.24674682,748.95223,-237.15671)" />
    <linearGradient
       inkscape:collect="always"
       xlink:href="#linearGradient5126"
       id="linearGradient17531"
       x1="4328.1982"
       y1="1339.1514"
       x2="4417.9497"
       y2="1323.1244"
       gradientUnits="userSpaceOnUse"
       gradientTransform="matrix(0.24576658,0,0,0.24674682,748.95223,-237.78231)" />
    <linearGradient
       inkscape:collect="always"
       xlink:href="#linearGradient5126"
       id="linearGradient5010"
       x1="5709.9092"
       y1="3656.1304"
       x2="5721.6445"
       y2="3747.1934"
       gradientUnits="userSpaceOnUse"
       gradientTransform="matrix(0.24576658,0,0,0.24674682,748.95223,-237.15671)" />
    <linearGradient
       inkscape:collect="always"
       xlink:href="#linearGradient5126"
       id="linearGradient5057"
       x1="3550.0103"
       y1="166.40623"
       x2="3457.928"
       y2="68.058289"
       gradientUnits="userSpaceOnUse"
       gradientTransform="matrix(0.24576658,0,0,0.24674682,751.30149,-76.224404)" />
  </defs>
  <sodipodi:namedview
     pagecolor="#ffffff"
     bordercolor="#666666"
     borderopacity="1"
     objecttolerance="10"
     gridtolerance="10"
     guidetolerance="10"
     inkscape:pageopacity="0"
     inkscape:pageshadow="2"
     inkscape:window-width="1366"
     inkscape:window-height="697"
     id="namedview4"
     showgrid="false"
     inkscape:zoom="3.804016"
     inkscape:cx="-10.599612"
     inkscape:cy="5.9023007"
     inkscape:window-x="0"
     inkscape:window-y="0"
     inkscape:window-maximized="1"
     inkscape:current-layer="svg2" />
  <g
     id="g4156"
     transform="matrix(0.04460014,0,0,0.04460014,3.0791387,-1.0327307)">
    <path
       style="fill:#a8ccfe"
       d="m 1023.9358,604.29456 c -32.76365,-4.25521 -60.2895,-17.307 -84.00035,-39.82998 -34.62252,-32.88802 -52.87466,-81.40663 -52.87466,-140.55369 0,-63.40708 19.22883,-116.85144 55,-152.86631 28.99854,-29.1961 64.41361,-43.68873 106.72621,-43.67469 75.8454,0.0251 124.2663,46.12495 139.1662,132.49497 2.6795,15.53219 3.0208,61.16604 0.4804,64.22707 -1.509,1.81816 -13.2902,2.04111 -123.0832,2.32927 l -121.41461,0.31866 0.35535,9.375 c 1.24326,32.80085 11.66404,64.5235 27.81789,84.68252 23.8747,29.79415 61.65227,43.09856 111.45497,39.25196 22.6867,-1.75226 39.458,-5.02124 56.4386,-11.00074 16.4367,-5.78799 20.3477,-6.40825 21.2405,-3.36862 4.3793,14.91053 9.4538,36.77708 8.8812,38.26952 -1.8355,4.7831 -44.2471,17.576 -65.5635,19.77636 -19.8839,2.0525 -66.6599,2.38244 -80.625,0.5687 z m 108.9085,-223.76703 c 1.0895,-2.83922 -1.7649,-26.32063 -4.6391,-38.16267 -3.1178,-12.84542 -12.8767,-33.41323 -19.7497,-41.62408 -16.0979,-19.23159 -36.7833,-28.30629 -64.6323,-28.35422 -38.7451,-0.0666 -69.48904,22.7103 -86.90079,64.38149 -5.09221,12.1871 -11.10727,34.67416 -11.11001,41.53431 l -0.002,4.0625 h 93.1642 c 80.8108,0 93.2577,-0.24362 93.8693,-1.83733 z m 477.3415,223.76703 c -32.7636,-4.25521 -60.2895,-17.307 -84.0003,-39.82998 -34.6226,-32.88802 -52.8747,-81.40663 -52.8747,-140.55369 0,-63.40708 19.2288,-116.85144 55,-152.86631 28.9985,-29.1961 64.4136,-43.68873 106.7262,-43.67469 75.8454,0.0251 124.2663,46.12495 139.1662,132.49497 2.6795,15.53219 3.0208,61.16604 0.4804,64.22707 -1.509,1.81816 -13.2902,2.04111 -123.0832,2.32927 l -121.4146,0.31866 0.3553,9.375 c 1.2433,32.80085 11.6641,64.5235 27.8179,84.68252 23.8747,29.79415 61.6523,43.09856 111.455,39.25196 22.6867,-1.75226 39.458,-5.02124 56.4386,-11.00074 16.4367,-5.78799 20.3477,-6.40825 21.2405,-3.36862 4.3793,14.91053 9.4538,36.77708 8.8812,38.26952 -1.8355,4.7831 -44.2471,17.576 -65.5635,19.77636 -19.8839,2.0525 -66.6599,2.38244 -80.625,0.5687 z m 108.9085,-223.76703 c 1.0895,-2.83922 -1.7649,-26.32063 -4.6391,-38.16267 -3.1178,-12.84542 -12.8767,-33.41323 -19.7497,-41.62408 -16.0979,-19.23159 -36.7833,-28.30629 -64.6323,-28.35422 -38.7451,-0.0666 -69.489,22.7103 -86.9008,64.38149 -5.0922,12.1871 -11.1073,34.67416 -11.11,41.53431 v 4.0625 h 93.1642 c 80.8108,0 93.2577,-0.24362 93.8693,-1.83733 z m 846.7165,224.18305 c -32.3295,-3.68679 -63.0934,-15.49897 -90,-34.55662 -15.113,-10.70436 -36.9548,-32.56742 -47.7751,-47.82172 -31.858,-44.91266 -48.4728,-103.38578 -48.4728,-170.59238 0,-138.53733 67.3374,-236.91647 178.036,-260.108663 20.5134,-4.297697 52.4059,-5.392064 73.9755,-2.538412 99.9671,13.225625 166.4928,87.017575 183.8193,203.897075 3.1398,21.18034 3.1525,79.56692 0.023,101.875 -6.1549,43.86093 -19.4707,83.51295 -38.1202,113.51557 -28.6216,46.04528 -72.8241,78.8524 -124.1668,92.15662 -18.6225,4.82558 -63.0002,6.94669 -87.3179,4.17353 z m 63.2279,-36.6845 c 76.6522,-14.62809 128.7851,-82.35094 141.9592,-184.41122 2.0335,-15.75403 2.016,-60.05372 -0.03,-75 -9.4426,-68.9899 -37.2866,-123.48664 -79.2479,-155.10541 -35.9551,-27.09296 -86.6835,-36.3125 -133.8991,-24.33526 -70.511,17.88658 -118.5172,84.83951 -130.9024,182.56567 -2.418,19.07979 -2.0666,61.88009 0.6568,80 9.7495,64.86727 37.8355,117.96355 78.8824,149.12619 18.4125,13.97866 48.1948,25.95383 71.9765,28.94089 12.2185,1.53469 37.9813,0.62804 50.6042,-1.78086 z m 331.1471,36.21623 c -22.3071,-2.45878 -38.029,-6.47347 -58.7993,-15.01485 -11.8211,-4.86116 -25.466,-12.62226 -26.3802,-15.00478 -0.803,-2.09244 12.1574,-34.47203 14.0966,-35.21832 0.7794,-0.29995 4.2061,1.17083 7.6151,3.2684 16.8274,10.35399 39.8649,19.31919 61.4965,23.93178 15.3863,3.28089 46.9355,4.57337 61.4707,2.51829 38.4178,-5.43177 66.049,-22.65543 80.3857,-50.10797 7.3881,-14.14702 9.7185,-23.67786 10.419,-42.61201 2.1254,-57.44512 -25.1675,-89.85056 -100.9291,-119.83535 -57.2084,-22.64182 -89.047,-46.07529 -108.2306,-79.65864 -14.6557,-25.65655 -19.1128,-59.7538 -11.7824,-90.13636 9.1411,-37.8876 36.2189,-68.66509 75.1941,-85.46821 33.7366,-14.544679 78.969,-17.636316 122.1769,-8.350811 19.5401,4.199214 45.5892,14.228681 48.2851,18.590781 0.7845,1.26936 -11.1174,33.05243 -13.2912,35.49322 -0.5983,0.67165 -5.8342,-1.24653 -12.6245,-4.62496 -22.776,-11.3318 -41.2967,-15.7396 -70.3524,-16.74341 -23.5306,-0.81293 -37.2069,1.06948 -54.1829,7.4577 -25.339,9.53532 -42.8096,27.58386 -51.0481,52.7367 -2.7799,8.4873 -3.2945,12.32887 -3.3523,25.02635 -0.1333,29.37285 7.5679,48.09125 27.5365,66.92862 15.2259,14.3633 34.727,25.78427 70.4218,41.24285 45.6982,19.79087 69.2759,34.08975 89.4615,54.25486 13.9811,13.9669 23.2265,27.67462 29.3165,43.4667 9.4419,24.4835 9.8346,75.93517 0.7636,100.03462 -15.4811,41.12937 -47.3316,69.58232 -92.7127,82.82277 -21.625,6.30933 -63.2162,8.5003 -94.9539,5.00203 z M 714.16742,599.05483 c -0.47115,-0.47115 -0.85663,-71.91913 -0.85663,-158.7733 V 282.36486 h -22.39777 c -12.31877,0 -23.28752,-0.34142 -24.375,-0.75873 -1.69811,-0.65163 -1.97723,-3.82793 -1.97723,-22.5 0,-11.95769 0.14062,-21.8504 0.3125,-21.98379 0.17187,-0.13339 11,-0.55526 24.0625,-0.9375 l 23.75,-0.69498 0.81439,-24.375 c 1.30822,-39.15497 5.8346,-62.05718 16.78557,-84.93023 7.34244,-15.33599 14.45648,-25.16775 25.91412,-35.813932 22.01605,-20.456819 46.66453,-29.255834 81.95372,-29.255834 23.43443,0 49.85389,5.07167 53.06618,10.186967 1.73771,2.767157 -6.33307,42.266429 -8.83213,43.225409 -0.94542,0.36279 -5.7651,-0.54072 -10.7104,-2.00782 -48.42235,-14.365177 -83.09163,3.70455 -94.43629,49.22044 -4.07771,16.36019 -5.38846,28.46113 -5.60249,51.72268 l -0.20267,22.02732 43.125,0.625 43.125,0.625 0.34296,21.7824 c 0.2612,16.58973 -0.0367,22.0234 -1.25,22.79337 -0.87612,0.55602 -20.57518,1.01957 -43.77567,1.0301 l -42.18271,0.0191 -0.31729,158.4375 -0.31729,158.4375 -27.58087,0.3358 c -15.16948,0.18469 -27.96635,-0.0498 -28.4375,-0.52083 z m 556.05568,-0.72847 c -0.2902,-0.87257 -0.8752,-76.9615 -1.3,-169.0865 -0.4249,-92.125 -0.877,-173.125 -1.0049,-180 l -0.2324,-12.5 24.2847,-0.34027 c 13.3566,-0.18714 24.6998,0.0941 25.2072,0.625 0.5073,0.5309 1.2652,11.09027 1.6843,23.46527 0.419,12.375 1.0864,26.6799 1.4832,31.78867 l 0.7213,9.28866 5.1846,-9.94791 c 21.2821,-40.83435 56.7228,-64.24774 95.0543,-62.79619 6.9467,0.26306 13.3335,0.91952 14.1929,1.4588 1.1692,0.73369 1.5625,7.57989 1.5625,27.19597 0,19.82105 -0.3811,26.36089 -1.5625,26.81168 -0.8594,0.32792 -9.4375,0.76254 -19.0625,0.96582 -14.3737,0.30357 -18.9515,0.8796 -25.625,3.22448 -29.8148,10.47605 -50.9356,38.39581 -60.1478,79.51002 -2.7505,12.27518 -2.8137,14.46724 -3.514,121.875 l -0.7132,109.375 -27.8425,0.3365 c -21.6272,0.26138 -27.9603,-0.0176 -28.3702,-1.25 z m 586.2413,0 c -0.295,-0.87257 -0.873,-76.399 -1.2845,-167.8365 -0.4114,-91.4375 -0.8597,-172.4375 -0.9961,-180 l -0.248,-13.75 24.6295,-0.33873 c 22.4995,-0.30944 24.7299,-0.14729 25.7905,1.875 0.6385,1.21756 1.5652,11.56602 2.0592,22.99658 0.4941,11.43057 1.2656,22.57907 1.7147,24.77444 l 0.8163,3.9916 5.1382,-7.27445 c 17.5467,-24.84192 44.5597,-43.26246 75.0551,-51.18114 16.7337,-4.34521 41.409,-5.39181 57.137,-2.42346 57.2746,10.80945 93.7305,54.7235 100.724,121.33016 1.0145,9.66239 1.331,48.68055 1.0646,131.25 l -0.3791,117.5 h -28.125 -28.125 l -0.6744,-118.75 c -0.7287,-128.32218 -0.6132,-126.08985 -7.6634,-148.125 -11.7202,-36.63168 -37.4916,-56.14917 -74.2451,-56.2283 -25.502,-0.0549 -47.2685,9.03982 -65.592,27.4063 -10.2692,10.2934 -16.7097,19.96597 -21.6879,32.572 -7.8028,19.75907 -7.4334,13.27752 -8.1926,143.75 l -0.6946,119.375 -27.8425,0.3365 c -21.6237,0.26133 -27.9623,-0.0179 -28.3789,-1.25 z"
       id="path4170"
       inkscape:connector-curvature="0" />
    <path
       style="fill:#5d9ffe"
       d="m 1036.4358,605.29049 c -40.50172,-4.85793 -72.1937,-18.91013 -96.76896,-42.90726 -39.53878,-38.60865 -57.55674,-101.0753 -49.39281,-171.24048 9.75542,-83.84332 56.42546,-143.5181 124.28677,-158.9196 22.1637,-5.03019 53.8927,-4.37339 75.2994,1.5587 48.2272,13.36443 82.2687,55.07858 94.6903,116.03255 4.5559,22.35633 5.8233,70.53219 1.9403,73.7548 -1.028,0.85318 -42.1365,1.38998 -122.6756,1.60191 l -121.12941,0.31875 0.30744,11.875 c 1.31541,50.80772 25.12173,93.63815 62.11947,111.76048 20.4052,9.9949 34.1813,12.65529 64.4481,12.4459 29.6384,-0.20503 46.0769,-2.79241 71.5097,-11.25548 9.5361,-3.17325 17.6257,-5.48216 17.9769,-5.13093 0.551,0.55096 10.5134,36.40897 10.5134,37.84108 0,2.28453 -27.9096,11.93397 -46.7187,16.15252 -24.5568,5.50763 -66.632,8.48387 -86.4063,6.11206 z m 97.7668,-223.79511 c 1.2242,-3.19015 -1.6726,-28.43669 -4.5246,-39.43322 -5.484,-21.14507 -12.8958,-34.93768 -25.7422,-47.90382 -9.7788,-9.8699 -18.2953,-15.18483 -31.25,-19.50231 -7.7094,-2.56935 -11.1286,-2.91589 -28.75,-2.91384 -18.5672,0.002 -20.6568,0.24207 -29.1683,3.34901 -29.61356,10.80988 -50.73967,34.97878 -63.23454,72.34221 -4.44286,13.28554 -8.31338,31.72102 -7.26822,34.61895 0.44404,1.23122 20.5535,1.5625 94.84406,1.5625 87.4852,0 94.3391,-0.15276 95.0938,-2.11948 z m 488.4832,223.79511 c -40.5017,-4.85793 -72.1937,-18.91013 -96.769,-42.90726 -39.5387,-38.60865 -57.5567,-101.0753 -49.3928,-171.24048 9.7555,-83.84332 56.4255,-143.5181 124.2868,-158.9196 22.1637,-5.03019 53.8927,-4.37339 75.2994,1.5587 48.2272,13.36443 82.2687,55.07858 94.6903,116.03255 4.5559,22.35633 5.8233,70.53219 1.9403,73.7548 -1.028,0.85318 -42.1365,1.38998 -122.6756,1.60191 l -121.1294,0.31875 0.3074,11.875 c 1.3154,50.80772 25.1218,93.63815 62.1195,111.76048 20.4052,9.9949 34.1813,12.65529 64.4481,12.4459 29.6384,-0.20503 46.0769,-2.79241 71.5097,-11.25548 9.5361,-3.17325 17.6257,-5.48216 17.9769,-5.13093 0.551,0.55096 10.5134,36.40897 10.5134,37.84108 0,2.28453 -27.9096,11.93397 -46.7187,16.15252 -24.5568,5.50763 -66.632,8.48387 -86.4063,6.11206 z m 97.7668,-223.79511 c 1.2242,-3.19015 -1.6726,-28.43669 -4.5246,-39.43322 -5.484,-21.14507 -12.8958,-34.93768 -25.7422,-47.90382 -9.7788,-9.8699 -18.2953,-15.18483 -31.25,-19.50231 -7.7094,-2.56935 -11.1286,-2.91589 -28.75,-2.91384 -18.5672,0.002 -20.6568,0.24207 -29.1683,3.34901 -29.6136,10.80988 -50.7397,34.97878 -63.2345,72.34221 -4.4429,13.28554 -8.3134,31.72102 -7.2683,34.61895 0.4441,1.23122 20.5535,1.5625 94.8441,1.5625 87.4852,0 94.3391,-0.15276 95.0938,-2.11948 z m 843.4832,222.74613 c -41.5708,-5.06293 -79.6714,-23.7919 -111.6821,-54.89921 -37.8959,-36.82619 -60.7413,-86.61065 -69.7405,-151.97744 -2.922,-21.22413 -2.9184,-69.25047 0.013,-91.66696 4.9902,-38.24086 14.331,-70.14952 29.1517,-99.58304 12.1048,-24.03993 22.5975,-38.50086 42.2369,-58.2103 28.946,-29.0492 59.5517,-45.88369 99.5005,-54.729424 59.0622,-13.07797 119.5094,-2.345046 166.7767,29.612694 16.3225,11.03573 40.3637,35.47251 51.7429,52.59438 10.5328,15.84815 20.46,35.13934 26.7504,51.98265 24.6786,66.08004 25.7827,156.85317 2.7614,227.01762 -24.6829,75.22875 -78.0615,127.59241 -148.3629,145.54195 -22.849,5.83387 -61.37,7.69942 -89.1418,4.31708 z m 68.125,-36.24941 c 30.9734,-6.83154 54.6436,-19.95332 77.559,-42.99537 32.3851,-32.56429 51.5569,-75.32888 61.4212,-137.00687 2.5555,-15.97862 2.1574,-70.48988 -0.639,-87.5 -12.7308,-77.43745 -48.3366,-134.6792 -100.0337,-160.81949 -22.9575,-11.60827 -41.0238,-15.45734 -72.0575,-15.35203 -25.5284,0.0866 -35.8494,1.77448 -56.25,9.19892 -59.3448,21.59742 -101.161,83.33298 -114.3683,168.8476 -2.8118,18.20718 -3.8422,58.26973 -1.9773,76.89127 8.1742,81.62596 46.9777,147.59655 103.5812,176.10075 11.9001,5.99263 28.6369,11.5446 41.684,13.8275 13.6664,2.39128 47.859,1.72385 61.0804,-1.19228 z m 328.75,36.13775 c -25.1523,-2.90442 -55.4756,-11.99111 -73.75,-22.09991 -8.5765,-4.74423 -11.25,-7.00814 -11.25,-9.5263 0,-3.58619 11.7681,-31.66604 13.559,-32.3533 0.9656,-0.37051 3.2316,0.27467 5.0357,1.43374 7.955,5.11071 27.9843,14.54751 38.5854,18.17955 41.7784,14.3136 87.8545,14.436 121.4454,0.32261 27.0214,-11.3532 46.6415,-33.52625 54.0766,-61.11298 3.7534,-13.92641 3.7076,-41.73772 -0.093,-55.9834 -6.9211,-25.94843 -20.3874,-43.95367 -45.3721,-60.66576 -15.1189,-10.11285 -28.5904,-16.77564 -56.969,-28.1761 -37.9078,-15.2285 -60.0319,-28.36126 -80.3608,-47.70162 -28.8108,-27.40997 -41.7553,-61.40185 -38.5177,-101.14725 6.159,-75.61216 76.2142,-124.485446 167.3596,-116.756856 9.2813,0.786995 22.4323,2.557039 29.2245,3.93343 22.363,4.531689 46.7514,13.733386 49.9519,18.846846 0.9991,1.59624 -0.1393,5.78806 -4.8739,17.94683 -3.3976,8.72527 -6.9057,16.15476 -7.7957,16.50996 -0.8902,0.35521 -6.7964,-1.92032 -13.125,-5.05672 -21.8538,-10.83058 -46.533,-16.20494 -74.6314,-16.25241 -29.0865,-0.0491 -49.2349,5.12704 -67.6749,17.38589 -34.9899,23.26121 -46.3642,70.9831 -26.5784,111.51124 12.3214,25.23825 39.829,45.14921 93.6283,67.77125 76.4079,32.12872 112.5254,68.41779 120.0312,120.60127 3.444,23.944 1.5494,54.16612 -4.5302,72.26528 -13.9745,41.60232 -48.6151,72.42294 -96.4058,85.77465 -21.141,5.90634 -60.9908,7.8119 -90.9702,4.35006 z M 715.1523,597.07731 c -0.32954,-0.8731 -0.73807,-72.1812 -0.90784,-158.46245 l -0.30867,-156.875 -24.375,-0.625 -24.375,-0.625 -0.3419,-21.53597 -0.34191,-21.53598 24.71691,-0.33902 24.7169,-0.33903 0.80161,-23.125 c 0.44089,-12.71875 1.72713,-29.74258 2.85831,-37.83074 8.50821,-60.83514 38.92211,-98.262574 90.37218,-111.212253 14.70314,-3.700693 44.64266,-3.934919 59.7179,-0.467191 16.18679,3.723415 23.13764,6.712196 23.05298,9.912499 -0.0396,1.497479 -1.89267,10.878939 -4.11789,20.847689 -4.66047,20.878296 -3.16049,19.721156 -19.56009,15.089376 -28.2572,-7.98075 -54.86783,-2.92295 -71.34821,13.56093 -17.56151,17.56523 -27.13415,54.07554 -25.91743,98.84969 l 0.39064,14.375 43.125,0.625 43.125,0.625 0.34272,20.9375 c 0.1885,11.51563 0.1885,21.05959 0,21.2088 -0.1885,0.14923 -19.74897,0.5711 -43.46772,0.9375 l -43.125,0.6662 -0.625,158.125 -0.625,158.125 -26.59216,0.33745 c -20.59704,0.26137 -26.72724,-0.0205 -27.19133,-1.25 z m 556.3083,0 c -0.2975,-0.8731 -0.8597,-77.8062 -1.2494,-170.96245 -0.3897,-93.15625 -0.8361,-173.59375 -0.992,-178.75 l -0.2834,-9.375 h 23.75 23.75 l 0.9576,26.25 c 1.1863,32.51913 2.0447,42.49772 3.5281,41.01434 0.6229,-0.6229 3.3656,-5.75029 6.0949,-11.39419 19.9711,-41.29762 57.2538,-66.08133 95.7909,-63.67708 5.6491,0.35242 10.8859,1.02075 11.6373,1.48513 0.9162,0.5662 1.3662,9.2612 1.3662,26.39558 v 25.55122 h -15.5635 c -19.0079,0 -25.9009,1.33334 -38.8115,7.50739 -25.7573,12.31758 -43.2744,38.08859 -52.2484,76.86761 -2.5002,10.80394 -2.6311,15.58673 -3.3025,120.625 l -0.6991,109.375 -26.5922,0.33745 c -20.6206,0.26167 -26.7136,-0.019 -27.133,-1.25 z m 586.2485,0 c -0.2982,-0.8731 -0.8611,-77.52495 -1.2508,-170.33745 -0.3896,-92.8125 -0.8354,-173.25 -0.9905,-178.75 l -0.282,-10 23.0334,-0.34155 c 13.2948,-0.19715 23.5329,0.1579 24.2148,0.83972 0.6497,0.6497 1.9186,13.1784 2.8199,27.84155 0.9013,14.66316 1.6766,26.83411 1.7228,27.04656 0.2751,1.26375 3.1191,-2.10484 8.0903,-9.58259 7.1852,-10.80795 23.1362,-26.09149 35.5259,-34.03932 18.8413,-12.08634 42.2601,-19.45607 65.9181,-20.74383 58.5054,-3.1846 105.8668,30.71201 122.3404,87.55926 7.8175,26.9766 7.5833,22.10665 7.5839,157.6702 l 5e-4,123.75 h -26.875 -26.875 l -0.7535,-119.375 c -0.773,-122.46942 -0.778,-122.5865 -6.1015,-142.19173 -8.0771,-29.7463 -26.4063,-50.28233 -52.3201,-58.6197 -9.5558,-3.0744 -34.735,-3.687 -45.5133,-1.10734 -35.1217,8.40607 -61.9995,35.31651 -72.4556,72.54377 -2.7994,9.96679 -2.8109,10.39652 -3.4574,129.375 l -0.6486,119.375 -26.5922,0.33745 c -20.62,0.26167 -26.7139,-0.0191 -27.1345,-1.25 z"
       id="path4168"
       inkscape:connector-curvature="0" />
    <path
       style="fill:#a0a0a0"
       d="m 1039.5608,605.23166 c -9.733,-0.77247 -35.1459,-6.7228 -47.43892,-11.10761 -26.19895,-9.34496 -50.25516,-27.36814 -68.25073,-51.13419 -13.28991,-17.55146 -26.31366,-49.81805 -31.28132,-77.5 -2.73524,-15.24196 -3.72699,-51.78795 -1.88733,-69.54791 5.1697,-49.90782 22.25647,-90.80174 50.33314,-120.46281 12.55245,-13.2608 23.27401,-21.39945 38.52515,-29.24414 21.80071,-11.21359 43.65371,-16.37014 69.37501,-16.37014 62.7272,0 105.7889,31.54852 127.2608,93.23585 8.7546,25.15123 13.4561,61.15729 11.3293,86.76415 l -1.0901,13.125 -121.4146,0.31867 c -104.4125,0.27403 -121.62572,0.57313 -122.9227,2.1359 -2.27704,2.74365 0.582,30.40808 4.91616,47.56943 11.18518,44.28839 37.8582,73.25873 78.21764,84.95444 31.3891,9.09618 77.7021,6.3168 117.2139,-7.03434 8.1946,-2.76897 15.3519,-4.56415 15.9051,-3.9893 0.5532,0.57487 3.0691,8.85693 5.5908,18.4046 3.7089,14.04264 4.2658,17.56453 2.9143,18.433 -4.1139,2.6437 -22.8755,9.19007 -35.5445,12.40228 -30.7438,7.79504 -64.9853,11.17142 -91.7511,9.04712 z m 94.9793,-222.21681 c 1.9532,-2.35351 0.796,-17.62426 -2.6468,-34.92815 -6.6163,-33.25391 -23.1641,-57.36559 -47.6576,-69.44122 -14.1663,-6.9842 -25.3517,-9.13542 -44.0499,-8.4718 -12.1362,0.43072 -16.9069,1.1856 -24.988,3.95381 -28.08905,9.62207 -49.98002,32.94767 -62.74241,66.85421 -6.18568,16.4338 -10.83665,40.52445 -8.31126,43.04983 0.45832,0.45833 43.13945,0.83333 94.84697,0.83333 81.4782,0 94.2183,-0.24667 95.549,-1.85001 z m 491.2707,222.21681 c -9.733,-0.77247 -35.1459,-6.7228 -47.4389,-11.10761 -26.199,-9.34496 -50.2552,-27.36814 -68.2507,-51.13419 -13.29,-17.55146 -26.3137,-49.81805 -31.2814,-77.5 -2.7352,-15.24196 -3.727,-51.78795 -1.8873,-69.54791 5.1697,-49.90782 22.2565,-90.80174 50.3331,-120.46281 12.5525,-13.2608 23.2741,-21.39945 38.5252,-29.24414 21.8007,-11.21359 43.6537,-16.37014 69.375,-16.37014 62.7272,0 105.7889,31.54852 127.2608,93.23585 8.7546,25.15123 13.4561,61.15729 11.3293,86.76415 l -1.0901,13.125 -121.4146,0.31867 c -104.4125,0.27403 -121.6257,0.57313 -122.9227,2.1359 -2.277,2.74365 0.582,30.40808 4.9162,47.56943 11.1851,44.28839 37.8582,73.25873 78.2176,84.95444 31.3891,9.09618 77.7021,6.3168 117.2139,-7.03434 8.1946,-2.76897 15.3519,-4.56415 15.9051,-3.9893 0.5532,0.57487 3.0691,8.85693 5.5908,18.4046 3.7089,14.04264 4.2658,17.56453 2.9143,18.433 -4.1139,2.6437 -22.8755,9.19007 -35.5445,12.40228 -30.7438,7.79504 -64.9853,11.17142 -91.7511,9.04712 z m 94.9793,-222.21681 c 1.9532,-2.35351 0.796,-17.62426 -2.6468,-34.92815 -6.6163,-33.25391 -23.1641,-57.36559 -47.6576,-69.44122 -14.1663,-6.9842 -25.3517,-9.13542 -44.0499,-8.4718 -12.1362,0.43072 -16.9069,1.1856 -24.988,3.95381 -28.089,9.62207 -49.98,32.94767 -62.7424,66.85421 -6.1857,16.4338 -10.8367,40.52445 -8.3113,43.04983 0.4584,0.45833 43.1395,0.83333 94.847,0.83333 81.4782,0 94.2183,-0.24667 95.549,-1.85001 z m 843.1457,221.22666 c -41.5708,-5.06293 -79.6714,-23.7919 -111.6821,-54.89921 -37.8959,-36.82619 -60.7413,-86.61065 -69.7405,-151.97744 -2.922,-21.22413 -2.9184,-69.25047 0.013,-91.66696 4.9902,-38.24086 14.331,-70.14952 29.1517,-99.58304 12.1048,-24.03993 22.5975,-38.50086 42.2369,-58.2103 28.946,-29.0492 59.5517,-45.88369 99.5005,-54.729424 59.0622,-13.07797 119.5094,-2.345046 166.7767,29.612694 16.3225,11.03573 40.3637,35.47251 51.7429,52.59438 10.5328,15.84815 20.46,35.13934 26.7504,51.98265 24.6786,66.08004 25.7827,156.85317 2.7614,227.01762 -24.6829,75.22875 -78.0615,127.59241 -148.3629,145.54195 -22.849,5.83387 -61.37,7.69942 -89.1418,4.31708 z m 68.125,-36.24941 c 30.9734,-6.83154 54.6436,-19.95332 77.559,-42.99537 32.3851,-32.56429 51.5569,-75.32888 61.4212,-137.00687 2.5555,-15.97862 2.1574,-70.48988 -0.639,-87.5 -12.7308,-77.43745 -48.3366,-134.6792 -100.0337,-160.81949 -22.9575,-11.60827 -41.0238,-15.45734 -72.0575,-15.35203 -25.5284,0.0866 -35.8494,1.77448 -56.25,9.19892 -59.3448,21.59742 -101.161,83.33298 -114.3683,168.8476 -2.8118,18.20718 -3.8422,58.26973 -1.9773,76.89127 8.1742,81.62596 46.9777,147.59655 103.5812,176.10075 11.9001,5.99263 28.6369,11.5446 41.684,13.8275 13.6664,2.39128 47.859,1.72385 61.0804,-1.19228 z m 328.75,36.13775 c -25.1523,-2.90442 -55.4756,-11.99111 -73.75,-22.09991 -8.5765,-4.74423 -11.25,-7.00814 -11.25,-9.5263 0,-3.58619 11.7681,-31.66604 13.559,-32.3533 0.9656,-0.37051 3.2316,0.27467 5.0357,1.43374 7.955,5.11071 27.9843,14.54751 38.5854,18.17955 41.7784,14.3136 87.8545,14.436 121.4454,0.32261 27.0214,-11.3532 46.6415,-33.52625 54.0766,-61.11298 3.7534,-13.92641 3.7076,-41.73772 -0.093,-55.9834 -6.9211,-25.94843 -20.3874,-43.95367 -45.3721,-60.66576 -15.1189,-10.11285 -28.5904,-16.77564 -56.969,-28.1761 -37.9078,-15.2285 -60.0319,-28.36126 -80.3608,-47.70162 -28.8108,-27.40997 -41.7553,-61.40185 -38.5177,-101.14725 6.159,-75.61216 76.2142,-124.485446 167.3596,-116.756856 9.2813,0.786995 22.4323,2.557039 29.2245,3.93343 22.363,4.531689 46.7514,13.733386 49.9519,18.846846 0.9991,1.59624 -0.1393,5.78806 -4.8739,17.94683 -3.3976,8.72527 -6.9057,16.15476 -7.7957,16.50996 -0.8902,0.35521 -6.7964,-1.92032 -13.125,-5.05672 -21.8538,-10.83058 -46.533,-16.20494 -74.6314,-16.25241 -29.0865,-0.0491 -49.2349,5.12704 -67.6749,17.38589 -34.9899,23.26121 -46.3642,70.9831 -26.5784,111.51124 12.3214,25.23825 39.829,45.14921 93.6283,67.77125 76.4079,32.12872 112.5254,68.41779 120.0312,120.60127 3.444,23.944 1.5494,54.16612 -4.5302,72.26528 -13.9745,41.60232 -48.6151,72.42294 -96.4058,85.77465 -21.141,5.90634 -60.9908,7.8119 -90.9702,4.35006 z M 715.81079,440.5921 c 0,-86.22502 -0.34143,-157.66252 -0.75874,-158.75 -0.65668,-1.71129 -4.10333,-1.97724 -25.625,-1.97724 h -24.86626 l -10e-4,-20.9375 -0.002,-20.9375 23.84351,0.38919 c 15.59112,0.2545 24.39871,-0.0716 25.44762,-0.9421 1.16159,-0.96402 1.8047,-8.31301 2.3312,-26.63919 0.39989,-13.91935 1.63538,-31.11408 2.74552,-38.21053 8.67523,-55.45543 36.50653,-91.258142 81.26015,-104.534606 6.1875,-1.835563 13.5,-4.006847 16.25,-4.825074 2.93197,-0.872371 12.23809,-1.43847 22.5,-1.368693 14.67412,0.09978 19.44882,0.644134 29.56864,3.371063 15.44395,4.161595 21.05636,6.53448 21.05636,8.902475 0,2.576575 -7.44711,37.346245 -8.14939,38.048525 -0.30807,0.30808 -4.64737,-0.64413 -9.64287,-2.11601 -41.21354,-12.143218 -73.35445,-1.29825 -89.03308,30.04147 -8.97509,17.94016 -12.77771,37.46073 -14.00506,71.89442 -0.62795,17.61729 -0.44996,23.19633 0.78761,24.6875 1.38273,1.66609 7.32844,1.92656 43.97682,1.92656 h 42.37789 l -0.34346,20.3125 -0.34346,20.3125 -42.43669,0.32943 c -32.04021,0.24872 -42.67719,0.70807 -43.41836,1.875 -0.53992,0.85006 -0.99028,72.27995 -1.00081,158.73307 l -0.0191,157.1875 h -26.25 -26.25 V 440.5921 Z m 555.75611,-10.41474 c -0.4167,-91.95312 -1.0928,-172.67187 -1.5025,-179.375 l -0.7449,-12.1875 h 23.1113 23.1113 l 0.8003,22.1875 c 1.7191,47.65942 2.9791,53.23307 8.7997,38.92639 16.5766,-40.74449 54.4434,-68.6582 93.0561,-68.59682 17.9586,0.0285 16.3626,-2.54443 16.3626,26.37872 v 24.85421 h -14.8001 c -26.7307,0 -42.4578,6.0893 -59.7117,23.11959 -16.0051,15.79768 -25.568,34.60343 -31.9368,62.80501 -2.7033,11.97033 -2.7641,14.24534 -3.2226,120.6379 l -0.4674,108.4375 h -26.0489 -26.0489 z m 586.2029,0.625 c -0.427,-91.60937 -1.0799,-172.32812 -1.4507,-179.375 l -0.6743,-12.8125 h 23.1842 c 27.1576,0 23.9766,-2.7771 25.0567,21.875 1.1484,26.21188 2.0435,34.375 3.7693,34.375 0.8527,0 3.7073,-3.49433 6.3434,-7.76521 14.9116,-24.15869 44.1485,-44.79941 75.3051,-53.16392 10.8613,-2.9159 14.424,-3.25987 34.0073,-3.28323 18.7515,-0.0224 23.3029,0.36756 31.875,2.73083 42.6575,11.76036 71.8687,42.51027 84.2361,88.67345 6.0825,22.70361 6.3384,28.98701 6.3645,156.24558 l 0.025,119.0625 h -26.1806 -26.1805 l -0.4953,-118.4375 c -0.5325,-127.39227 -0.4535,-125.78205 -7.1923,-146.5625 -5.1564,-15.90076 -11.2024,-26.28651 -21.2554,-36.51215 -16.1179,-16.39485 -34.4264,-23.0124 -60.5709,-21.89327 -42.6639,1.82624 -77.9022,31.68537 -89.5801,75.90542 -2.7976,10.59372 -2.8071,10.9738 -3.2287,129.0625 l -0.4229,118.4375 h -26.0789 -26.0789 l -0.7765,-166.5625 z"
       id="path4166"
       inkscape:connector-curvature="0" />
    <path
       style="fill:#3185fe"
       d="m 1039.5608,605.23166 c -9.733,-0.77247 -35.1459,-6.7228 -47.43892,-11.10761 -26.19895,-9.34496 -50.25516,-27.36814 -68.25073,-51.13419 -13.28991,-17.55146 -26.31366,-49.81805 -31.28132,-77.5 -2.73524,-15.24196 -3.72699,-51.78795 -1.88733,-69.54791 5.1697,-49.90782 22.25647,-90.80174 50.33314,-120.46281 12.55245,-13.2608 23.27401,-21.39945 38.52515,-29.24414 21.80071,-11.21359 43.65371,-16.37014 69.37501,-16.37014 62.7272,0 105.7889,31.54852 127.2608,93.23585 8.7546,25.15123 13.4561,61.15729 11.3293,86.76415 l -1.0901,13.125 -121.4146,0.31867 c -104.4125,0.27403 -121.62572,0.57313 -122.9227,2.1359 -2.27704,2.74365 0.582,30.40808 4.91616,47.56943 11.18518,44.28839 37.8582,73.25873 78.21764,84.95444 31.3891,9.09618 77.7021,6.3168 117.2139,-7.03434 8.1946,-2.76897 15.3519,-4.56415 15.9051,-3.9893 0.5532,0.57487 3.0691,8.85693 5.5908,18.4046 3.7089,14.04264 4.2658,17.56453 2.9143,18.433 -4.1139,2.6437 -22.8755,9.19007 -35.5445,12.40228 -30.7438,7.79504 -64.9853,11.17142 -91.7511,9.04712 z m 94.9793,-222.21681 c 1.9532,-2.35351 0.796,-17.62426 -2.6468,-34.92815 -6.6163,-33.25391 -23.1641,-57.36559 -47.6576,-69.44122 -14.1663,-6.9842 -25.3517,-9.13542 -44.0499,-8.4718 -12.1362,0.43072 -16.9069,1.1856 -24.988,3.95381 -28.08905,9.62207 -49.98002,32.94767 -62.74241,66.85421 -6.18568,16.4338 -10.83665,40.52445 -8.31126,43.04983 0.45832,0.45833 43.13945,0.83333 94.84697,0.83333 81.4782,0 94.2183,-0.24667 95.549,-1.85001 z m 491.2707,222.21681 c -9.733,-0.77247 -35.1459,-6.7228 -47.4389,-11.10761 -26.199,-9.34496 -50.2552,-27.36814 -68.2507,-51.13419 -13.29,-17.55146 -26.3137,-49.81805 -31.2814,-77.5 -2.7352,-15.24196 -3.727,-51.78795 -1.8873,-69.54791 5.1697,-49.90782 22.2565,-90.80174 50.3331,-120.46281 12.5525,-13.2608 23.2741,-21.39945 38.5252,-29.24414 21.8007,-11.21359 43.6537,-16.37014 69.375,-16.37014 62.7272,0 105.7889,31.54852 127.2608,93.23585 8.7546,25.15123 13.4561,61.15729 11.3293,86.76415 l -1.0901,13.125 -121.4146,0.31867 c -104.4125,0.27403 -121.6257,0.57313 -122.9227,2.1359 -2.277,2.74365 0.582,30.40808 4.9162,47.56943 11.1851,44.28839 37.8582,73.25873 78.2176,84.95444 31.3891,9.09618 77.7021,6.3168 117.2139,-7.03434 8.1946,-2.76897 15.3519,-4.56415 15.9051,-3.9893 0.5532,0.57487 3.0691,8.85693 5.5908,18.4046 3.7089,14.04264 4.2658,17.56453 2.9143,18.433 -4.1139,2.6437 -22.8755,9.19007 -35.5445,12.40228 -30.7438,7.79504 -64.9853,11.17142 -91.7511,9.04712 z m 94.9793,-222.21681 c 1.9532,-2.35351 0.796,-17.62426 -2.6468,-34.92815 -6.6163,-33.25391 -23.1641,-57.36559 -47.6576,-69.44122 -14.1663,-6.9842 -25.3517,-9.13542 -44.0499,-8.4718 -12.1362,0.43072 -16.9069,1.1856 -24.988,3.95381 -28.089,9.62207 -49.98,32.94767 -62.7424,66.85421 -6.1857,16.4338 -10.8367,40.52445 -8.3113,43.04983 0.4584,0.45833 43.1395,0.83333 94.847,0.83333 81.4782,0 94.2183,-0.24667 95.549,-1.85001 z m 853.1457,221.86758 c -103.3456,-12.69155 -173.3408,-87.9856 -189.3998,-203.738 -3.9627,-28.56377 -3.6532,-75.07027 0.6928,-104.11358 18.214,-121.71675 93.0622,-198.884096 200.8186,-207.040546 28.4056,-2.15012 59.5286,1.516045 85.0746,10.021486 77.0352,25.64843 129.0434,96.39916 142.1793,193.41715 4.0151,29.65552 3.7032,76.38555 -0.7103,106.37094 -8.4501,57.41197 -29.742,105.49842 -62.4158,140.96322 -36.9832,40.14214 -89.9067,63.26473 -148.1144,64.71211 -10.6563,0.26498 -23.3125,-10e-4 -28.125,-0.59278 z m 52.6352,-34.45112 c 43.1904,-7.53175 80.332,-32.35073 105.9162,-70.7758 27.921,-41.93486 42.0736,-93.5823 42.0736,-153.54065 0,-44.02101 -6.8941,-79.3775 -22.6276,-116.04485 -11.3379,-26.42343 -24.8224,-46.28381 -44.0629,-64.89722 -23.3288,-22.56845 -48.3766,-35.36047 -80.0358,-40.87445 -14.5015,-2.5257 -41.9515,-2.50235 -57.116,0.0486 -74.8406,12.58952 -127.1907,75.59857 -143.7492,173.01792 -3.3546,19.73607 -4.7,65.65224 -2.4938,85.11038 11.4535,101.01545 67.6024,173.97996 144.5817,187.88134 13.5761,2.45166 43.6595,2.49075 57.5138,0.0747 z m 345.4199,34.4398 c -15.3201,-1.77623 -40.4109,-7.24261 -55.2237,-12.0313 -14.9009,-4.81712 -38.2758,-16.04977 -39.3783,-18.92297 -0.7167,-1.86766 10.3758,-31.06688 12.2395,-32.21875 0.5979,-0.36955 5.468,1.87275 10.8223,4.98289 40.4157,23.4762 94.6258,31.57565 137.6136,20.56062 12.3385,-3.16159 29.946,-11.62746 40.008,-19.23619 14.8627,-11.23908 27.2652,-30.36701 32.0247,-49.39055 6.5515,-26.18567 2.0883,-60.44625 -10.7046,-82.17188 -5.8126,-9.87118 -24.6904,-28.60579 -36.7066,-36.42813 -12.9939,-8.4588 -33.0118,-18.1924 -55.625,-27.04739 -66.6425,-26.09618 -101.729,-58.11923 -115.2725,-105.20803 -2.4144,-8.39452 -2.8129,-12.76045 -2.8313,-31.01957 -0.019,-18.34525 0.3725,-22.69096 2.8592,-31.79146 12.9248,-47.30056 51.1856,-80.7523 105.2446,-92.016121 30.498,-6.354612 76.5621,-3.598401 108.125,6.469569 12.5756,4.011392 28.125,11.129732 28.125,12.875342 0,1.69686 -11.3191,30.37301 -12.5314,31.74712 -0.5019,0.56894 -6.7872,-1.83498 -13.9675,-5.34205 -31.7162,-15.49116 -77.4535,-20.37277 -111.0011,-11.84731 -24.0038,6.10006 -43.9865,20.38132 -56.107,40.0984 -7.4104,12.05478 -10.3954,23.01403 -11.0738,40.65599 -1.1078,28.81577 5.7469,48.08049 23.7988,66.88374 16.5854,17.27566 37.4697,29.74121 82.5706,49.28498 71.3466,30.91693 103.288,61.54483 115.3935,110.64822 2.9218,11.8514 3.3504,16.13401 3.3613,33.58358 0.013,17.84398 -0.3589,21.4149 -3.4323,33.125 -1.8946,7.21875 -5.3297,17.48558 -7.6336,22.81517 -21.4899,49.71113 -73.7713,79.75615 -141.8726,81.53105 -10.659,0.2778 -23.6302,0.0125 -28.8248,-0.58997 z M 715.81079,440.5921 c 0,-86.22502 -0.34143,-157.66252 -0.75874,-158.75 -0.65668,-1.71129 -4.10333,-1.97724 -25.625,-1.97724 h -24.86626 l -10e-4,-20.9375 -0.002,-20.9375 23.84351,0.38919 c 15.59112,0.2545 24.39871,-0.0716 25.44762,-0.9421 1.16159,-0.96402 1.8047,-8.31301 2.3312,-26.63919 0.39989,-13.91935 1.63538,-31.11408 2.74552,-38.21053 8.67523,-55.45543 36.50653,-91.258142 81.26015,-104.534606 6.1875,-1.835563 13.5,-4.006847 16.25,-4.825074 2.93197,-0.872371 12.23809,-1.43847 22.5,-1.368693 14.67412,0.09978 19.44882,0.644134 29.56864,3.371063 15.44395,4.161595 21.05636,6.53448 21.05636,8.902475 0,2.576575 -7.44711,37.346245 -8.14939,38.048525 -0.30807,0.30808 -4.64737,-0.64413 -9.64287,-2.11601 -41.21354,-12.143218 -73.35445,-1.29825 -89.03308,30.04147 -8.97509,17.94016 -12.77771,37.46073 -14.00506,71.89442 -0.62795,17.61729 -0.44996,23.19633 0.78761,24.6875 1.38273,1.66609 7.32844,1.92656 43.97682,1.92656 h 42.37789 l -0.34346,20.3125 -0.34346,20.3125 -42.43669,0.32943 c -32.04021,0.24872 -42.67719,0.70807 -43.41836,1.875 -0.53992,0.85006 -0.99028,72.27995 -1.00081,158.73307 l -0.0191,157.1875 h -26.25 -26.25 V 440.5921 Z m 555.75611,-10.41474 c -0.4167,-91.95312 -1.0928,-172.67187 -1.5025,-179.375 l -0.7449,-12.1875 h 23.1113 23.1113 l 0.8003,22.1875 c 1.7191,47.65942 2.9791,53.23307 8.7997,38.92639 16.5766,-40.74449 54.4434,-68.6582 93.0561,-68.59682 17.9586,0.0285 16.3626,-2.54443 16.3626,26.37872 v 24.85421 h -14.8001 c -26.7307,0 -42.4578,6.0893 -59.7117,23.11959 -16.0051,15.79768 -25.568,34.60343 -31.9368,62.80501 -2.7033,11.97033 -2.7641,14.24534 -3.2226,120.6379 l -0.4674,108.4375 h -26.0489 -26.0489 z m 586.2029,0.625 c -0.427,-91.60937 -1.0799,-172.32812 -1.4507,-179.375 l -0.6743,-12.8125 h 23.1842 c 27.1576,0 23.9766,-2.7771 25.0567,21.875 1.1484,26.21188 2.0435,34.375 3.7693,34.375 0.8527,0 3.7073,-3.49433 6.3434,-7.76521 14.9116,-24.15869 44.1485,-44.79941 75.3051,-53.16392 10.8613,-2.9159 14.424,-3.25987 34.0073,-3.28323 18.7515,-0.0224 23.3029,0.36756 31.875,2.73083 42.6575,11.76036 71.8687,42.51027 84.2361,88.67345 6.0825,22.70361 6.3384,28.98701 6.3645,156.24558 l 0.025,119.0625 h -26.1806 -26.1805 l -0.4953,-118.4375 c -0.5325,-127.39227 -0.4535,-125.78205 -7.1923,-146.5625 -5.1564,-15.90076 -11.2024,-26.28651 -21.2554,-36.51215 -16.1179,-16.39485 -34.4264,-23.0124 -60.5709,-21.89327 -42.6639,1.82624 -77.9022,31.68537 -89.5801,75.90542 -2.7976,10.59372 -2.8071,10.9738 -3.2287,129.0625 l -0.4229,118.4375 h -26.0789 -26.0789 l -0.7765,-166.5625 z"
       id="path4164"
       inkscape:connector-curvature="0" />
    <path
       style="fill:#0169fe"
       d="m 1040.835,605.26573 c -6.453,-0.36025 -8.7772,-0.88469 -7.5,-1.6923 1.3594,-0.85957 0.6892,-1.18255 -2.5242,-1.21648 -2.4063,-0.0254 -9.1563,-1.1047 -15,-2.39842 C 954.48588,586.382 913.38067,545.23288 897.09394,481.11486 c -8.41811,-33.14063 -8.45246,-82.10741 -0.0826,-117.87621 16.60623,-70.96782 62.95422,-119.49431 124.35686,-130.20205 16.2783,-2.83869 42.8952,-2.53916 58.5904,0.65931 38.3732,7.81998 67.3985,30.59068 85.7749,67.29149 7.8226,15.62313 11.6166,26.3675 15.5115,43.92724 5.2365,23.60916 7.254,52.17136 5.0066,70.8816 l -0.7875,6.55636 -122.0141,0.31864 -122.01418,0.31862 -0.36319,11.07618 c -1.00817,30.74631 11.27258,68.01319 29.8185,90.48656 24.28947,29.43321 61.53507,42.33348 112.41967,38.93729 21.9427,-1.46453 38.099,-4.60249 58.4835,-11.35898 8.4473,-2.79983 15.5901,-4.85907 15.8731,-4.5761 0.5427,0.54265 9.3934,32.68845 9.3934,34.1167 0,1.50773 -12.8888,6.71937 -27.5,11.11974 -14.9581,4.50485 -41.5523,9.55965 -50.4692,9.59275 -3.7893,0.0141 -4.6589,0.3403 -3.2808,1.23086 1.361,0.87955 0.3007,1.21697 -3.8681,1.23087 -3.1586,0.01 -11.5961,0.22678 -18.75,0.48057 -7.1538,0.2538 -17.2147,0.22654 -22.3577,-0.0606 z m 94.5386,-220.79658 c 1.4762,-1.47681 0.586,-20.9236 -1.5074,-32.92784 -10.2883,-58.99765 -53.8712,-91.45146 -108.8829,-81.07916 -36.85685,6.94924 -66.85197,40.56553 -79.2146,88.77771 -1.41031,5.5 -2.89766,13.45973 -3.30521,17.68827 -0.65824,6.82948 -0.47777,7.75707 1.61565,8.30416 4.04495,1.0571 190.21726,0.3144 191.29446,-0.76314 z m 491.7114,220.79658 c -6.453,-0.36025 -8.7772,-0.88469 -7.5,-1.6923 1.3594,-0.85957 0.6892,-1.18255 -2.5242,-1.21648 -2.4063,-0.0254 -9.1563,-1.1047 -15,-2.39842 -61.3249,-13.57653 -102.4301,-54.72565 -118.7169,-118.84367 -8.4181,-33.14063 -8.4524,-82.10741 -0.083,-117.87621 16.6062,-70.96782 62.9542,-119.49431 124.3569,-130.20205 16.2783,-2.83869 42.8952,-2.53916 58.5904,0.65931 38.3732,7.81998 67.3985,30.59068 85.7749,67.29149 7.8226,15.62313 11.6166,26.3675 15.5115,43.92724 5.2365,23.60916 7.254,52.17136 5.0066,70.8816 l -0.7875,6.55636 -122.0141,0.31864 -122.0142,0.31862 -0.3632,11.07618 c -1.0082,30.74631 11.2726,68.01319 29.8185,90.48656 24.2895,29.43321 61.5351,42.33348 112.4197,38.93729 21.9427,-1.46453 38.099,-4.60249 58.4835,-11.35898 8.4473,-2.79983 15.5901,-4.85907 15.8731,-4.5761 0.5427,0.54265 9.3934,32.68845 9.3934,34.1167 0,1.50773 -12.8888,6.71937 -27.5,11.11974 -14.9581,4.50485 -41.5523,9.55965 -50.4692,9.59275 -3.7893,0.0141 -4.6589,0.3403 -3.2808,1.23086 1.361,0.87955 0.3007,1.21697 -3.8681,1.23087 -3.1586,0.01 -11.5961,0.22678 -18.75,0.48057 -7.1538,0.2538 -17.2147,0.22654 -22.3577,-0.0606 z m 94.5386,-220.79658 c 1.4762,-1.47681 0.586,-20.9236 -1.5074,-32.92784 -10.2883,-58.99765 -53.8712,-91.45146 -108.8829,-81.07916 -36.8568,6.94924 -66.852,40.56553 -79.2146,88.77771 -1.4103,5.5 -2.8977,13.45973 -3.3052,17.68827 -0.6582,6.82948 -0.4778,7.75707 1.6156,8.30416 4.045,1.0571 190.2173,0.3144 191.2945,-0.76314 z m 852.3122,220.41328 c -103.3456,-12.69155 -173.3408,-87.9856 -189.3998,-203.738 -3.9627,-28.56377 -3.6532,-75.07027 0.6928,-104.11358 18.214,-121.71675 93.0622,-198.884096 200.8186,-207.040546 28.4056,-2.15012 59.5286,1.516045 85.0746,10.021486 77.0352,25.64843 129.0434,96.39916 142.1793,193.41715 4.0151,29.65552 3.7032,76.38555 -0.7103,106.37094 -8.4501,57.41197 -29.742,105.49842 -62.4158,140.96322 -36.9832,40.14214 -89.9067,63.26473 -148.1144,64.71211 -10.6563,0.26498 -23.3125,-10e-4 -28.125,-0.59278 z m 52.6352,-34.45112 c 43.1904,-7.53175 80.332,-32.35073 105.9162,-70.7758 27.921,-41.93486 42.0736,-93.5823 42.0736,-153.54065 0,-44.02101 -6.8941,-79.3775 -22.6276,-116.04485 -11.3379,-26.42343 -24.8224,-46.28381 -44.0629,-64.89722 -23.3288,-22.56845 -48.3766,-35.36047 -80.0358,-40.87445 -14.5015,-2.5257 -41.9515,-2.50235 -57.116,0.0486 -74.8406,12.58952 -127.1907,75.59857 -143.7492,173.01792 -3.3546,19.73607 -4.7,65.65224 -2.4938,85.11038 11.4535,101.01545 67.6024,173.97996 144.5817,187.88134 13.5761,2.45166 43.6595,2.49075 57.5138,0.0747 z m 345.4199,34.4398 c -15.3201,-1.77623 -40.4109,-7.24261 -55.2237,-12.0313 -14.9009,-4.81712 -38.2758,-16.04977 -39.3783,-18.92297 -0.7167,-1.86766 10.3758,-31.06688 12.2395,-32.21875 0.5979,-0.36955 5.468,1.87275 10.8223,4.98289 40.4157,23.4762 94.6258,31.57565 137.6136,20.56062 12.3385,-3.16159 29.946,-11.62746 40.008,-19.23619 14.8627,-11.23908 27.2652,-30.36701 32.0247,-49.39055 6.5515,-26.18567 2.0883,-60.44625 -10.7046,-82.17188 -5.8126,-9.87118 -24.6904,-28.60579 -36.7066,-36.42813 -12.9939,-8.4588 -33.0118,-18.1924 -55.625,-27.04739 -66.6425,-26.09618 -101.729,-58.11923 -115.2725,-105.20803 -2.4144,-8.39452 -2.8129,-12.76045 -2.8313,-31.01957 -0.019,-18.34525 0.3725,-22.69096 2.8592,-31.79146 12.9248,-47.30056 51.1856,-80.7523 105.2446,-92.016121 30.498,-6.354612 76.5621,-3.598401 108.125,6.469569 12.5756,4.011392 28.125,11.129732 28.125,12.875342 0,1.69686 -11.3191,30.37301 -12.5314,31.74712 -0.5019,0.56894 -6.7872,-1.83498 -13.9675,-5.34205 -31.7162,-15.49116 -77.4535,-20.37277 -111.0011,-11.84731 -24.0038,6.10006 -43.9865,20.38132 -56.107,40.0984 -7.4104,12.05478 -10.3954,23.01403 -11.0738,40.65599 -1.1078,28.81577 5.7469,48.08049 23.7988,66.88374 16.5854,17.27566 37.4697,29.74121 82.5706,49.28498 71.3466,30.91693 103.288,61.54483 115.3935,110.64822 2.9218,11.8514 3.3504,16.13401 3.3613,33.58358 0.013,17.84398 -0.3589,21.4149 -3.4323,33.125 -1.8946,7.21875 -5.3297,17.48558 -7.6336,22.81517 -21.4899,49.71113 -73.7713,79.75615 -141.8726,81.53105 -10.659,0.2778 -23.6302,0.0125 -28.8248,-0.58997 z M 717.06079,439.47878 c 0,-124.5429 -0.32483,-157.08033 -1.58541,-158.80427 -1.42635,-1.95065 -3.99727,-2.13137 -25.62638,-1.80141 l -24.04098,0.36676 0.0205,-21.25 c 0.0114,-11.81438 0.48282,-20.52098 1.06167,-19.60818 0.81374,1.2832 6.11161,1.55623 24.25478,1.25 12.7675,-0.2155 23.68099,-0.85998 24.25221,-1.43217 0.57122,-0.5722 1.38943,-12.9472 1.81825,-27.5 0.46839,-15.89556 1.64608,-31.45031 2.94973,-38.95965 8.59409,-49.50398 29.79046,-80.764321 66.15558,-97.566041 9.31698,-4.304708 26.38986,-9.295081 31.91294,-9.328096 2.1988,-0.01314 2.68618,-0.346272 1.55553,-1.06322 -2.3903,-1.515685 15.73088,-2.65467 28.21674,-1.77353 6.30238,0.444766 9.80735,1.151313 8.81937,1.777853 -1.09675,0.695519 -0.46699,1.046093 1.90218,1.058897 4.06676,0.02198 21.80926,4.378356 26.45733,6.496162 1.91108,0.870743 3.1105,2.439331 3.08625,4.036123 -0.0485,3.194217 -6.83758,34.280792 -7.66801,35.111212 -0.3273,0.3273 -6.18009,-0.82592 -13.0062,-2.56272 -9.28413,-2.3622 -15.72186,-3.16907 -25.55161,-3.2025 -20.99803,-0.0714 -33.55765,4.22634 -45.9768,15.73275 -13.20329,12.23292 -21.8418,31.74621 -25.76505,58.19999 -2.1082,14.21519 -3.26347,57.80867 -1.57745,59.52452 0.5721,0.58223 20.11898,1.22052 43.4375,1.41842 l 42.3973,0.3598 v 19.3277 19.32768 h -42.45602 c -40.6957,0 -42.50967,0.10025 -43.75,2.41783 -0.87219,1.6297 -1.29398,53.3767 -1.29398,158.75 v 156.33217 h -25 -25 V 439.47878 Z m 555.78641,-5.55142 c -0.4309,-89.20312 -1.1333,-169.35937 -1.5609,-178.125 l -0.7773,-15.9375 h 21.9056 21.9056 l 0.7235,12.8125 c 0.3979,7.04688 1.1552,22.36949 1.6828,34.05024 0.8434,18.67144 1.2201,21.28739 3.1175,21.64853 1.6337,0.31093 3.3694,-2.21074 7.1415,-10.37535 15.3789,-33.2877 40.94,-56.05588 71.4052,-63.60327 4.998,-1.23818 13.4256,-2.03265 21.5625,-2.03265 h 13.3576 v 24.6875 24.6875 l -12.8139,-0.40605 c -24.3438,-0.77142 -42.4472,5.75464 -59.097,21.30368 -18.1833,16.98117 -28.8025,38.08326 -35.089,69.72737 -1.853,9.32775 -2.1758,23.63564 -2.6439,117.1875 l -0.5331,106.5625 h -24.753 -24.7529 l -0.7836,-162.1875 z m 586.2204,0.625 c -0.4229,-88.85937 -1.104,-169.01562 -1.5134,-178.125 l -0.7445,-16.5625 h 22.4956 22.4956 l 0.9073,18.14988 c 0.499,9.98244 1.2606,22.49176 1.6925,27.79851 1.0688,13.13525 3.053,13.37489 10.8488,1.31024 7.0743,-10.94801 21.9355,-26.05138 32.9128,-33.44904 11.0922,-7.47525 26.4236,-14.42602 40.282,-18.26264 16.0169,-4.43422 43.276,-5.60551 58.5287,-2.5149 50.4702,10.22658 81.6665,43.5687 94.1945,100.67357 2.5388,11.572 2.6277,15.57158 3.0495,137.23188 l 0.4347,125.3125 h -24.9593 -24.9594 l -0.5177,-115.9375 c -0.5473,-122.52402 -0.6234,-124.18575 -6.6444,-144.96316 -5.1741,-17.85459 -11.103,-28.41501 -22.4442,-39.977 -7.8807,-8.03394 -12.0769,-11.20239 -19.375,-14.62942 -13.0125,-6.1103 -27.3922,-8.76845 -42.3944,-7.8368 -14.8341,0.9212 -24.1008,3.35182 -36.9215,9.68436 -31.6441,15.63002 -51.9852,46.49135 -55.5717,84.31305 -0.7854,8.28179 -1.3016,56.46224 -1.3023,121.53397 l -10e-4,107.8125 h -24.8621 -24.862 z"
       id="path4162"
       inkscape:connector-curvature="0" />
    <path
       style="fill:#5a5a5a"
       d="m 2573.9358,604.88243 c -103.3456,-12.69155 -173.3408,-87.9856 -189.3998,-203.738 -3.9627,-28.56377 -3.6532,-75.07027 0.6928,-104.11358 18.214,-121.71675 93.0622,-198.884096 200.8186,-207.040546 28.4056,-2.15012 59.5286,1.516045 85.0746,10.021486 77.0352,25.64843 129.0434,96.39916 142.1793,193.41715 4.0151,29.65552 3.7032,76.38555 -0.7103,106.37094 -8.4501,57.41197 -29.742,105.49842 -62.4158,140.96322 -36.9832,40.14214 -89.9067,63.26473 -148.1144,64.71211 -10.6563,0.26498 -23.3125,-10e-4 -28.125,-0.59278 z m 52.6352,-34.45112 c 43.1904,-7.53175 80.332,-32.35073 105.9162,-70.7758 27.921,-41.93486 42.0736,-93.5823 42.0736,-153.54065 0,-44.02101 -6.8941,-79.3775 -22.6276,-116.04485 -11.3379,-26.42343 -24.8224,-46.28381 -44.0629,-64.89722 -23.3288,-22.56845 -48.3766,-35.36047 -80.0358,-40.87445 -14.5015,-2.5257 -41.9515,-2.50235 -57.116,0.0486 -74.8406,12.58952 -127.1907,75.59857 -143.7492,173.01792 -3.3546,19.73607 -4.7,65.65224 -2.4938,85.11038 11.4535,101.01545 67.6024,173.97996 144.5817,187.88134 13.5761,2.45166 43.6595,2.49075 57.5138,0.0747 z m 345.4199,34.4398 c -15.3201,-1.77623 -40.4109,-7.24261 -55.2237,-12.0313 -14.9009,-4.81712 -38.2758,-16.04977 -39.3783,-18.92297 -0.7167,-1.86766 10.3758,-31.06688 12.2395,-32.21875 0.5979,-0.36955 5.468,1.87275 10.8223,4.98289 40.4157,23.4762 94.6258,31.57565 137.6136,20.56062 12.3385,-3.16159 29.946,-11.62746 40.008,-19.23619 14.8627,-11.23908 27.2652,-30.36701 32.0247,-49.39055 6.5515,-26.18567 2.0883,-60.44625 -10.7046,-82.17188 -5.8126,-9.87118 -24.6904,-28.60579 -36.7066,-36.42813 -12.9939,-8.4588 -33.0118,-18.1924 -55.625,-27.04739 -66.6425,-26.09618 -101.729,-58.11923 -115.2725,-105.20803 -2.4144,-8.39452 -2.8129,-12.76045 -2.8313,-31.01957 -0.019,-18.34525 0.3725,-22.69096 2.8592,-31.79146 12.9248,-47.30056 51.1856,-80.7523 105.2446,-92.016121 30.498,-6.354612 76.5621,-3.598401 108.125,6.469569 12.5756,4.011392 28.125,11.129732 28.125,12.875342 0,1.69686 -11.3191,30.37301 -12.5314,31.74712 -0.5019,0.56894 -6.7872,-1.83498 -13.9675,-5.34205 -31.7162,-15.49116 -77.4535,-20.37277 -111.0011,-11.84731 -24.0038,6.10006 -43.9865,20.38132 -56.107,40.0984 -7.4104,12.05478 -10.3954,23.01403 -11.0738,40.65599 -1.1078,28.81577 5.7469,48.08049 23.7988,66.88374 16.5854,17.27566 37.4697,29.74121 82.5706,49.28498 71.3466,30.91693 103.288,61.54483 115.3935,110.64822 2.9218,11.8514 3.3504,16.13401 3.3613,33.58358 0.013,17.84398 -0.3589,21.4149 -3.4323,33.125 -1.8946,7.21875 -5.3297,17.48558 -7.6336,22.81517 -21.4899,49.71113 -73.7713,79.75615 -141.8726,81.53105 -10.659,0.2778 -23.6302,0.0125 -28.8248,-0.58997 z"
       id="path4160"
       inkscape:connector-curvature="0" />
    <path
       style="fill:#343434"
       d="m 2581.0839,605.26556 c -5.0061,-0.2815 -8.8169,-0.97306 -8.4685,-1.53681 0.3484,-0.56375 -3.0466,-1.40202 -7.5445,-1.86285 -11.8256,-1.21157 -34.2011,-7.27284 -48.6351,-13.17474 -73.9501,-30.23726 -122.2781,-103.65966 -131.9508,-200.46613 -1.9211,-19.22633 -0.8503,-71.8965 1.8168,-89.3646 17.1274,-112.17892 79.0839,-185.12759 173.4746,-204.251781 12.4371,-2.51984 17.7324,-2.863287 43.5344,-2.823584 32.7599,0.05041 43.1466,1.563173 68.3141,9.949555 74.5608,24.84526 124.988,92.67743 139.8585,188.13024 2.7999,17.97175 3.8775,70.15474 1.879,90.982 -5.17,53.87829 -20.0431,98.33635 -45.462,135.893 -10.8024,15.96052 -36.7341,41.63415 -52.7497,52.22453 -14.9045,9.85577 -34.3575,19.36 -50.2155,24.53404 -12.1415,3.96143 -35.2645,8.85333 -42.0004,8.88557 -3.0418,0.0145 -3.5501,0.3092 -2.124,1.23086 1.3495,0.87208 0.1237,1.21919 -4.375,1.23835 -3.4375,0.0146 -10.75,0.22858 -16.25,0.4754 -5.5,0.24683 -14.0959,0.21845 -19.1019,-0.063 z m 46.553,-33.67031 c 55.5881,-9.03805 102.3911,-49.9457 127.5035,-111.44319 27.1606,-66.51308 28.1146,-155.16936 2.3741,-220.6122 -25.9828,-66.05908 -70.3007,-106.13254 -128.9901,-116.63653 -14.8437,-2.65669 -42.5479,-2.61535 -58.2679,0.087 -49.7307,8.54876 -89.8465,38.84122 -116.7016,88.12458 -29.4999,54.13693 -39.7979,134.62892 -25.7475,201.25 13.2889,63.01075 46.4783,114.26688 91.0549,140.62135 31.9855,18.91032 68.5002,25.15723 108.7746,18.60904 z m 351.3188,33.65959 c -5.7373,-0.2907 -9.2898,-0.93241 -8.356,-1.50946 0.9741,-0.6021 -1.6272,-1.30739 -6.5007,-1.76249 -20.488,-1.91319 -52.7431,-11.15639 -70.7882,-20.28544 -17.1581,-8.6803 -16.2914,-6.8101 -10.1813,-21.96831 7.1565,-17.75428 6.7448,-17.24834 11.72,-14.39905 30.0088,17.18596 61.1245,26.41765 94.0593,27.90634 54.6364,2.46962 96.6974,-17.68464 115.0652,-55.13545 7.3058,-14.89617 9.3553,-23.21642 10.1879,-41.36112 2.6829,-58.4631 -27.2167,-94.16377 -103.7816,-123.91731 -38.1731,-14.83426 -64.2771,-30.28361 -83.8628,-49.63331 -17.7157,-17.50225 -27.4032,-33.70169 -33.4335,-55.90791 -2.4346,-8.9652 -2.8578,-13.53207 -2.8303,-30.54147 0.024,-14.67735 0.6051,-22.28302 2.1845,-28.57851 13.0835,-52.15301 57.4487,-88.270592 117.751,-95.860875 15.2355,-1.917702 52.47,-0.909265 67.4966,1.828035 23.8336,4.341624 55.5495,15.95521 54.0266,19.78325 -6.718,16.88731 -11.2269,27.96806 -11.6764,28.69549 -0.31,0.50148 -4.0593,-0.98836 -8.3318,-3.31073 -10.2395,-5.56571 -26.7955,-11.27009 -42.5329,-14.65474 -18.5455,-3.9886 -54.1901,-4.0374 -69.844,-0.0956 -22.3068,5.61709 -36.855,13.65149 -50.0455,27.63832 -17.1855,18.22296 -24.754,42.12492 -22.1279,69.88227 4.1101,43.44362 30.7115,70.08375 99.2819,99.42676 10.3125,4.41299 25.5,11.41481 33.75,15.55962 40.0159,20.10404 68.145,45.71237 80.7512,73.51474 4.1272,9.10235 9.8658,29.26643 9.8707,34.68326 0,1.9312 0.4833,3.21449 1.0702,2.85177 0.5869,-0.36274 1.3903,3.96345 1.7851,9.61372 0.8163,11.67885 -0.2725,31.79989 -1.6041,29.64521 -0.4855,-0.78547 -1.2485,1.68492 -1.6957,5.48974 -1.7662,15.02776 -9.6205,34.73106 -20.2722,50.85434 -6.247,9.45616 -22.992,25.96905 -33.0302,32.57255 -20.7293,13.63637 -56.8304,26.02457 -76.0756,26.10554 -3.3975,0.0143 -4.0747,0.32595 -2.6744,1.23086 1.3265,0.85726 -0.319,1.21991 -5.625,1.23975 -4.125,0.0154 -11.1563,0.22555 -15.625,0.46696 -4.4688,0.24141 -12.6161,0.21138 -18.1051,-0.0668 z"
       id="path4158"
       inkscape:connector-curvature="0" />
  </g>
  <g
     id="g4189"
     transform="matrix(0.01758045,0,0,-0.01700589,-16.954746,20.9517)">
    <path
       sodipodi:nodetypes="cccccc"
       inkscape:connector-curvature="0"
       id="path17401"
       d="m 1267.5321,204.00429 522.1756,-217.282713 509.3983,-45.627264 c -288.7318,313.701577 0,0 -288.7318,313.701577 L 1812.6782,93.274742 Z"
       style="fill:#0077d8;fill-opacity:1;fill-rule:evenodd;stroke:none;stroke-width:0.41280463px;stroke-linecap:butt;stroke-linejoin:miter;stroke-opacity:1" />
    <path
       sodipodi:nodetypes="cccccc"
       inkscape:connector-curvature="0"
       id="path17403"
       d="m 1267.5321,204.00424 315.6345,-222.724729 165.6876,-135.190471 46.4932,138.203115 21.2262,127.661395 z"
       style="fill:url(#linearGradient17435);fill-opacity:1;fill-rule:evenodd;stroke:none;stroke-width:0.37520179px;stroke-linecap:butt;stroke-linejoin:miter;stroke-opacity:1" />
    <path
       sodipodi:nodetypes="ccccc"
       inkscape:connector-curvature="0"
       id="path17403-5"
       d="m 1266.7084,204.00419 270.9975,-322.69783 211.1483,-35.21732 63.8245,246.559941 z"
       style="fill:url(#linearGradient17435-3);fill-opacity:1;fill-rule:evenodd;stroke:none;stroke-width:0.41280463px;stroke-linecap:butt;stroke-linejoin:miter;stroke-opacity:1" />
    <path
       sodipodi:nodetypes="ccc"
       inkscape:connector-curvature="0"
       id="path17405"
       d="m 1399.0781,-153.91096 184.0885,135.190471 165.6876,-135.190471"
       style="fill:#007ddf;fill-opacity:1;fill-rule:evenodd;stroke:none;stroke-width:0.41280463px;stroke-linecap:butt;stroke-linejoin:miter;stroke-opacity:1" />
    <path
       sodipodi:nodetypes="cccccc"
       inkscape:connector-curvature="0"
       id="path17395"
       d="m 1462.156,971.27728 -365.2135,0.19819 37.8137,-186.65852 132.7759,-580.81266 352.9273,531.50234 z"
       style="fill:url(#linearGradient17419);fill-opacity:1;fill-rule:evenodd;stroke:none;stroke-width:0.41280463px;stroke-linecap:butt;stroke-linejoin:miter;stroke-opacity:1" />
    <path
       inkscape:connector-curvature="0"
       id="path17397"
       d="m 1096.9425,971.47547 -71.097,-212.43114 108.9107,25.77262 z"
       style="fill:#208af6;fill-opacity:1;fill-rule:evenodd;stroke:none;stroke-width:0.41280463px;stroke-linecap:butt;stroke-linejoin:miter;stroke-opacity:1"
       sodipodi:nodetypes="cccc" />
    <path
       inkscape:connector-curvature="0"
       id="path17399"
       d="M 1620.4595,735.50663 1812.6786,93.274632 1267.5321,204.00424 1620.4595,735.50663"
       style="fill:#333333;fill-rule:evenodd;stroke:none;stroke-width:0.41280463px;stroke-linecap:butt;stroke-linejoin:miter;stroke-opacity:1" />
    <path
       inkscape:connector-curvature="0"
       id="path17409"
       d="M 1812.6787,93.274583 2370.4298,722.8518 1620.4595,735.50663 1267.5321,204.00419 Z"
       style="fill:#007fe2;fill-opacity:1;fill-rule:evenodd;stroke:none;stroke-width:0.41280463px;stroke-linecap:butt;stroke-linejoin:miter;stroke-opacity:1" />
    <path
       inkscape:connector-curvature="0"
       id="path17407"
       d="M 1266.7081,204.00424 1811.8548,93.274583 2495.6513,615.28583 1619.6355,735.50663 1266.7081,204.00424"
       style="fill:url(#linearGradient17427);fill-opacity:1;fill-rule:evenodd;stroke:none;stroke-width:0.41280463px;stroke-linecap:butt;stroke-linejoin:miter;stroke-opacity:1" />
    <path
       inkscape:connector-curvature="0"
       id="path17397-0"
       d="m 1096.9425,971.47547 -71.097,-212.43114 108.9107,25.77262 z"
       style="fill:url(#linearGradient17458);fill-opacity:1;fill-rule:evenodd;stroke:none;stroke-width:0.41280463px;stroke-linecap:butt;stroke-linejoin:miter;stroke-opacity:1"
       sodipodi:nodetypes="cccc" />
    <path
       sodipodi:nodetypes="ccccc"
       inkscape:connector-curvature="0"
       id="path17395-5"
       d="m 1529.0765,928.49259 -409.6478,-3.16371 148.1034,-721.32459 352.9273,531.50234 z"
       style="fill:url(#linearGradient17419-2);fill-opacity:1;fill-rule:evenodd;stroke:none;stroke-width:0.41280463px;stroke-linecap:butt;stroke-linejoin:miter;stroke-opacity:1" />
    <path
       sodipodi:nodetypes="ccccc"
       inkscape:connector-curvature="0"
       id="path17513"
       d="m 1811.8548,93.274533 39.1468,-33.752669 203.8794,128.631926 -40.0497,59.93085 z"
       style="fill:url(#linearGradient17521);fill-opacity:1;fill-rule:evenodd;stroke:none;stroke-width:0.41280463px;stroke-linecap:butt;stroke-linejoin:miter;stroke-opacity:1" />
    <path
       sodipodi:nodetypes="ccccc"
       inkscape:connector-curvature="0"
       id="path17523"
       d="m 1812.6787,92.648981 -17.3313,-108.356826 30.7236,-14.236672 24.9306,88.840779 z"
       style="fill:url(#linearGradient17531);fill-opacity:1;fill-rule:evenodd;stroke:none;stroke-width:0.41280463px;stroke-linecap:butt;stroke-linejoin:miter;stroke-opacity:1" />
    <path
       inkscape:connector-curvature="0"
       id="path5002"
       d="m 1619.6355,735.50663 750.7943,-12.65486 -71.8321,-79.84789 z"
       style="fill:url(#linearGradient5010);fill-opacity:1;fill-rule:evenodd;stroke:none;stroke-width:0.41280463px;stroke-linecap:butt;stroke-linejoin:miter;stroke-opacity:1" />
    <path
       sodipodi:nodetypes="ccc"
       inkscape:connector-curvature="0"
       id="path17405-3"
       d="m 1399.0781,-153.91096 184.0885,135.190466 165.6876,-135.190466"
       style="fill:url(#linearGradient5057);fill-opacity:1;fill-rule:evenodd;stroke:none;stroke-width:0.41280463px;stroke-linecap:butt;stroke-linejoin:miter;stroke-opacity:1" />
  </g>
</svg>
